<?xml version="1.0" standalone="no"?><!DOCTYPE svg PUBLIC "-//W3C//DTD SVG 1.1//EN" "http://www.w3.org/Graphics/SVG/1.1/DTD/svg11.dtd"><svg t="1667285463964" class="icon" viewBox="0 0 1024 1024" version="1.1" xmlns="http://www.w3.org/2000/svg" p-id="1475" xmlns:xlink="http://www.w3.org/1999/xlink" width="200" height="200"><path d="M515.918029 892.5184A380.5184 380.5184 0 1 1 896.641229 512a380.928 380.928 0 0 1-380.7232 380.5184z m0-720.0768A339.5584 339.5584 0 1 0 855.681229 512 339.968 339.968 0 0 0 515.918029 172.4416z" fill="#333333" p-id="1476"></path><path d="M219.777229 757.76C108.161229 757.76 23.374029 731.7504 3.713229 668.672-14.104371 611.1232 32.590029 540.672 135.399629 471.04a20.48 20.48 0 0 1 28.4672 4.5056 20.48 20.48 0 0 1-5.3248 28.4672c-84.1728 57.7536-127.3856 114.688-115.712 152.576 21.9136 70.0416 238.7968 88.2688 515.2768 2.2528S1003.546829 434.7904 981.223629 364.7488c-11.4688-36.864-77.2096-59.392-175.7184-60.0064a20.48 20.48 0 0 1 0-40.96c120.6272 0 196.8128 32.3584 214.4256 88.8832 37.888 121.6512-203.5712 268.6976-450.56 345.2928A1242.112 1242.112 0 0 1 219.777229 757.76z" fill="#333333" p-id="1477"></path></svg>